HIERARCHY
ROOT Hips
{
  OFFSET 279.157 85.6768 304.565
  CHANNELS 6 Xposition Yposition Zposition Zrotation Xrotation Yrotation
  JOINT LeftUpLeg
  {
    OFFSET 8.64259 1.95398 -2.38835
    CHANNELS 3 Zrotation Xrotation Yrotation
    JOINT LeftLeg
    {
      OFFSET 43.7702 0 0
      CHANNELS 3 Zrotation Xrotation Yrotation
      JOINT LeftFoot
      {
        OFFSET 40.6238 0 0
        CHANNELS 3 Zrotation Xrotation Yrotation
        JOINT LeftToeBase
        {
          OFFSET 12.7242 0 0
          CHANNELS 3 Zrotation Xrotation Yrotation
          End Site
          {
            OFFSET 0 0 0
          }
        }
      }
    }
  }
  JOINT RightUpLeg
  {
    OFFSET -8.2249 1.95398 -2.59336
    CHANNELS 3 Zrotation Xrotation Yrotation
    JOINT RightLeg
    {
      OFFSET 43.5653 0 0
      CHANNELS 3 Zrotation Xrotation Yrotation
      JOINT RightFoot
      {
        OFFSET 40.6238 0 0
        CHANNELS 3 Zrotation Xrotation Yrotation
        JOINT RightToeBase
        {
          OFFSET 12.7242 0 0
          CHANNELS 3 Zrotation Xrotation Yrotation
          End Site
          {
            OFFSET 0 0 0
          }
        }
      }
    }
  }
  JOINT Spine
  {
    OFFSET 0.165834 0.87714 6.61349
    CHANNELS 3 Zrotation Xrotation Yrotation
    JOINT Spine1
    {
      OFFSET 7.38963 1.71661e-005 0
      CHANNELS 3 Zrotation Xrotation Yrotation
      JOINT Spine2
      {
        OFFSET 11.9445 1.14441e-005 0
        CHANNELS 3 Zrotation Xrotation Yrotation
        JOINT Spine3
        {
          OFFSET 14.7254 4.19617e-005 0
          CHANNELS 3 Zrotation Xrotation Yrotation
          JOINT Spine4
          {
            OFFSET 10.9679 0 0
            CHANNELS 3 Zrotation Xrotation Yrotation
            JOINT RightShoulder
            {
              OFFSET 2.46616 -1.6653 3.69651
              CHANNELS 3 Zrotation Xrotation Yrotation
              JOINT RightArm
              {
                OFFSET 13.0012 0 0
                CHANNELS 3 Zrotation Xrotation Yrotation
                JOINT RightForeArm
                {
                  OFFSET 28.7848 1.52588e-005 0
                  CHANNELS 3 Zrotation Xrotation Yrotation
                  JOINT RightHand
                  {
                    OFFSET 26.5688 1.52588e-005 0
                    CHANNELS 3 Zrotation Xrotation Yrotation
                    End Site
                    {
                      OFFSET 0 0 0
                    }
                  }
                }
              }
            }
            JOINT LeftShoulder
            {
              OFFSET 2.38034 -1.29275 -3.7523
              CHANNELS 3 Zrotation Xrotation Yrotation
              JOINT LeftArm
              {
                OFFSET 16.3182 6.10351e-005 0
                CHANNELS 3 Zrotation Xrotation Yrotation
                JOINT LeftForeArm
                {
                  OFFSET 27.0901 0 0
                  CHANNELS 3 Zrotation Xrotation Yrotation
                  JOINT LeftHand
                  {
                    OFFSET 24.5451 1.52588e-005 0
                    CHANNELS 3 Zrotation Xrotation Yrotation
                    End Site
                    {
                      OFFSET 0 0 0
                    }
                  }
                }
              }
            }
            JOINT Neck
            {
              OFFSET 5.0226 -0.0266342 0
              CHANNELS 3 Zrotation Xrotation Yrotation
              JOINT Head
              {
                OFFSET 6.69364 2.86102e-005 0
                CHANNELS 3 Zrotation Xrotation Yrotation
                End Site
                {
                  OFFSET 0 0 0
                }
              }
            }
          }
        }
      }
    }
  }
}
MOTION
Frames:	7
Frame Time:	0.0416667
-242.485 88.9938 -201.986 92.9029 13.4418 92.9371 176.134 15.7668 97.0581 -70.786 46.5732 17.0342 92.8271 24.0345 -0.346643 24.151 -2.57576 0.329998 152.239 -15.6053 101.98 -81.7362 4.93853 26.9382 66.5273 -6.42473 -3.19803 15.0941 2.3963 9.17209 -4.26302 9.43618 -90.935 7.95518 -8.91844 -1.35238 -3.68522 -8.96928 -0.955411 -26.4277 -8.09727 -3.98664 -6.41509 -8.09725 -3.98663 88.6346 -30.6071 -109.201 21.1302 33.8847 4.28257 33.8165 -10.1539 -90.5259 -48.1202 27.7429 -56.9811 -89.9311 -40.2865 76.5307 -11.6319 -12.2562 -24.3547 155.124 -6.3126 -95.259 22.577 -14.8068 -64.9252 31.3045 -9.01267 -13.0051 -7.74385 -3.37151 2.66955 
-238.567 90.3182 -199.484 92.5788 12.6665 93.4668 175.584 9.14776 99.3413 -62.2529 45.1941 17.0716 95.0334 24.5824 -1.60408 24.3887 -3.17162 2.90362 145.052 -5.29502 96.6103 -89.8389 -1.24256 17.8598 70.0882 -6.60871 -4.7001 21.8956 -0.680676 16.3812 -4.73212 9.40272 -90.9687 8.01834 -9.86967 -1.35889 -3.615 -9.9198 -0.9189 -26.408 -9.00156 -4.28512 -6.39539 -9.00155 -4.28512 89.2615 -29.8037 -108.299 25.3738 29.0751 2.5447 34.1069 -15.3982 -86.0934 -47.2587 30.6526 -62.924 -89.3295 -38.8352 77.1661 -12.955 -16.2484 -24.1944 152.3 -5.39619 -98.1336 21.8556 -14.3946 -65.0025 30.6787 -6.63075 -12.2092 -8.48098 -1.46386 1.97805 
-234.907 91.9247 -197.024 90.7047 7.0407 95.9817 179.456 3.67876 102.758 -49.9239 41.8451 13.6777 93.2036 24.0984 -1.32808 27.9532 -1.09039 2.73675 144.66 4.18479 97.036 -93.925 -3.17311 10.6653 75.5143 -9.02935 -6.58623 40.9643 -4.35283 15.4484 -4.47595 9.21441 -91.298 8.37286 -9.50474 -1.98258 -3.26386 -9.5827 -1.55862 -26.0214 -8.46693 -4.76539 -6.00876 -8.46693 -4.76539 90.5435 -29.3095 -105.933 27.9615 22.5752 0.892457 33.242 -19.0036 -79.2434 -46.461 34.0571 -70.0507 -90.4245 -39.5549 75.5063 -12.4936 -19.9434 -25.2587 148.553 -2.94119 -102.096 21.1171 -13.9232 -64.8984 29.3997 -4.14511 -10.3325 -8.0737 0.0408633 1.83904 
-231.675 93.6995 -194.679 89.3087 -0.694491 97.9207 -175.361 -0.579383 105.8 -40.118 39.0997 10.2851 84.8316 21.5391 2.31873 36.0038 3.72579 0.219552 147.691 16.0695 98.294 -93.8798 -3.00327 6.72606 80.7811 -12.7451 -10.0455 35.4008 -3.11442 13.4488 -4.15804 9.07869 -91.5601 8.62192 -8.98719 -2.51032 -3.01936 -9.08888 -2.10935 -25.7362 -7.81585 -5.10827 -5.72358 -7.81585 -5.10827 90.7925 -27.7188 -106.038 30.4904 15.8029 -0.478791 30.7303 -14.5651 -78.8664 -42.6712 31.5732 -70.3726 -89.8141 -40.1731 76.6979 -12.3458 -23.1264 -25.3919 146.43 -1.22548 -104.739 20.2047 -13.3659 -64.8639 29.2756 -1.05574 -7.12062 -9.79839 1.76374 0.68999 
-228.231 95.3236 -192.109 90.3774 -9.66771 99.0995 -170.535 -5.65222 106.724 -34.2988 37.5544 7.80709 74.5516 15.4581 5.72689 43.0295 7.13049 3.89969 153.696 24.5228 99.2803 -90.1562 -1.80799 4.37617 82.4394 -13.989 -11.3286 19.7481 0.523692 12.2633 -3.61386 9.12765 -91.5897 8.5273 -7.9137 -2.64623 -3.12142 -8.02242 -2.29342 -25.7855 -6.75204 -4.90983 -5.7729 -6.75205 -4.90984 91.0342 -27.5059 -105.619 31.7663 8.48871 -1.07549 22.7013 -10.6227 -81.9974 -44.2703 27.6813 -62.409 -89.8173 -39.5569 76.5288 -13.544 -26.0025 -24.7122 144.906 0.342742 -106.748 19.6684 -13.037 -64.8294 29.6712 1.21326 -5.8755 -12.2093 3.34765 1.80636 
-224.337 96.4122 -189.037 90.825 -19.5519 99.4195 -167.412 -10.6342 105.904 -27.4487 31.9696 4.92085 64.0813 7.6281 5.02433 51.3908 11.7678 8.4276 161.257 32.8068 99.8231 -83.9075 3.20865 3.01879 82.5857 -12.1538 -7.68717 22.4707 0.360852 9.72157 -3.01127 9.02168 -91.6027 8.74785 -6.71933 -2.72961 -2.90799 -6.83287 -2.43016 -25.5234 -5.58847 -4.62631 -5.51077 -5.58848 -4.62632 90.8934 -26.8428 -106.167 32.5721 1.96244 -0.807543 17.9245 -4.97889 -82.9131 -40.8863 21.4282 -54.2961 -90.3728 -40.5325 75.8599 -12.886 -28.7427 -23.4388 144.482 1.89647 -108.882 19.2366 -12.6907 -64.4779 28.5616 4.21911 -3.20956 -12.7258 5.15352 1.46681 
-219.459 97.2979 -185.224 89.5837 -30.3461 98.445 -167.241 -15.0898 102.587 -21.2105 24.5806 2.78266 52.9946 -0.768819 3.31688 50.8422 11.6139 -1.10601 169.254 39.5657 100.269 -74.1958 5.77769 1.61002 81.3181 -10.467 -4.47169 21.8473 0.615783 9.19135 -2.32997 8.7442 -91.5561 9.31991 -5.34466 -2.69328 -2.34229 -5.45797 -2.45497 -24.9174 -4.28855 -4.17604 -4.90476 -4.28854 -4.17603 90.5111 -26.5571 -107.084 32.4845 -3.75507 -1.06979 13.3127 -1.27384 -81.5782 -36.9414 13.5879 -40.0406 -90.4741 -40.7538 75.7507 -12.6643 -31.1042 -22.358 144.56 3.57247 -111.034 18.8635 -12.415 -64.256 27.4046 6.82429 -0.937907 -13.7433 6.76511 1.37197 
